<svg xmlns="http://www.w3.org/2000/svg" width="21" height="25" viewBox="0 0 21 25"><g><g><path d="M9.844 24.225C8.839 23.387.02 15.888.02 10.476.02 4.83 4.726.234 10.507.234c5.782 0 10.486 4.595 10.486 10.242 0 5.412-8.816 12.911-9.823 13.749a1.035 1.035 0 0 1-1.327 0zM2.067 10.476c0 3.51 5.583 9.146 8.44 11.659 2.857-2.513 8.44-8.15 8.44-11.659 0-4.546-3.785-8.244-8.44-8.244-4.653 0-8.44 3.698-8.44 8.244zm3.326 0c0-2.754 2.295-4.996 5.114-4.996 2.82 0 5.114 2.242 5.114 4.996 0 2.755-2.293 4.996-5.114 4.996-2.819 0-5.114-2.241-5.114-4.996zm2.046 0c0 1.653 1.376 2.998 3.068 2.998 1.692 0 3.069-1.345 3.069-2.998 0-1.653-1.377-2.997-3.069-2.997S7.44 8.823 7.44 10.476z"/></g></g></svg>