<svg xmlns="http://www.w3.org/2000/svg" width="21" height="22" viewBox="0 0 21 22"><g><g><path d="M5.155 16.198l-.065-.068.001-.001C1.741 12.789-.085 8.595.013 4.549l.007-.3.187-.233c.29-.364.575-.685.874-.98A11.025 11.025 0 0 1 4.911.567c.176-.067.374-.102.59-.102.486 0 1.582.245 1.861 1.004.493 1.355 1.116 3.122 1.569 4.812.125.475.003 1.622-.668 2.04L6.666 9.322c.014.012.007.26.215.541.62.84 1.338 1.671 2.133 2.471.801.779 1.64 1.485 2.48 2.09a.91.91 0 0 0 .5.188l.553-.763.51-.793c.442-.679 1.55-.698 1.675-.698.13 0 .244.011.35.035 2.104.464 3.357.864 4.963 1.584.714.318 1.165 1.598.845 2.402a10.87 10.87 0 0 1-3.485 4.651l-.235.182-.604.01c-4.023 0-8.182-1.832-11.411-5.025zm1.214-1.327l.087.088c2.859 2.826 6.535 4.465 10.07 4.478a9.11 9.11 0 0 0 2.681-3.705c-.01-.007-.045-.116-.083-.204-1.398-.616-2.546-.974-4.436-1.39-.047.006-.14.024-.213.044l-.909 1.416c-.562.904-2.06 1.05-3.137.27A23.963 23.963 0 0 1 7.736 13.6a24.422 24.422 0 0 1-2.314-2.68c-.443-.6-.624-1.312-.496-1.955.097-.496.375-.906.78-1.155l1.428-.896a.959.959 0 0 0 .036-.247c-.397-1.462-.96-3.077-1.424-4.361a.821.821 0 0 0-.245-.052A9.26 9.26 0 0 0 2.36 4.298a9.063 9.063 0 0 0-.544.592c.014 3.45 1.701 7.16 4.553 9.981z"/></g></g></svg>